# Blender 4.1.1
# www.blender.org
mtllib pizza.mtl
o pizza_base_Cube
v 0.886288 0.103207 -0.301004
v 0.931176 0.103207 -0.000000
v 0.756854 0.103207 -0.555033
v 0.555033 0.103207 -0.756854
v 0.301004 0.103207 -0.886288
v 0.000000 0.103207 -0.931176
v -0.301004 0.103207 0.886288
v -0.555033 0.103207 0.756854
v -0.756854 0.103207 0.555033
v -0.886288 0.103207 0.301004
v 0.301004 0.103207 0.886288
v 0.000000 0.103207 0.931176
v 0.555033 0.103207 0.756854
v 0.756854 0.103207 0.555033
v 0.886288 0.103207 0.301004
v -0.555033 0.103207 -0.756854
v -0.301004 0.103207 -0.886288
v -0.756854 0.103207 -0.555033
v -0.886288 0.103207 -0.301004
v -0.931176 0.103207 -0.000000
v 0.931176 0.143402 -0.000000
v 0.955013 0.147481 0.027655
v 0.955013 0.147481 -0.027655
v 0.027655 0.147481 -0.955013
v -0.027655 0.147481 -0.955013
v 0.000000 0.143402 -0.931176
v 0.917109 0.147481 -0.281828
v 0.900255 0.147481 -0.334509
v 0.886288 0.143402 -0.301004
v 0.792218 0.147481 -0.546542
v 0.759707 0.147481 -0.591290
v 0.756854 0.143402 -0.555033
v 0.591290 0.147481 -0.759707
v 0.546542 0.147481 -0.792218
v 0.555033 0.143402 -0.756854
v 0.334509 0.147481 -0.900255
v 0.281828 0.147481 -0.917109
v 0.301004 0.143402 -0.886288
v 0.000000 0.143402 0.931176
v -0.027655 0.147481 0.955013
v 0.027655 0.147481 0.955013
v 0.281828 0.147481 0.917109
v 0.334509 0.147481 0.900255
v 0.301004 0.143402 0.886288
v 0.546542 0.147481 0.792218
v 0.591290 0.147481 0.759707
v 0.555033 0.143402 0.756854
v 0.759707 0.147481 0.591290
v 0.792218 0.147481 0.546542
v 0.756854 0.143402 0.555033
v 0.900255 0.147481 0.334509
v 0.917109 0.147481 0.281828
v 0.886288 0.143402 0.301004
v -0.955013 0.147481 -0.027655
v -0.955013 0.147481 0.027655
v -0.931176 0.143402 -0.000000
v -0.301004 0.143402 -0.886288
v -0.281828 0.147481 -0.917109
v -0.334509 0.147481 -0.900255
v -0.546542 0.147481 -0.792218
v -0.591290 0.147481 -0.759707
v -0.555033 0.143402 -0.756854
v -0.759707 0.147481 -0.591290
v -0.792218 0.147481 -0.546542
v -0.756854 0.143402 -0.555033
v -0.900255 0.147481 -0.334509
v -0.917109 0.147481 -0.281828
v -0.886288 0.143402 -0.301004
v -0.886288 0.143402 0.301004
v -0.917109 0.147481 0.281828
v -0.900255 0.147481 0.334509
v -0.756854 0.143402 0.555033
v -0.792218 0.147481 0.546542
v -0.759707 0.147481 0.591290
v -0.555033 0.143402 0.756854
v -0.591290 0.147481 0.759707
v -0.546542 0.147481 0.792218
v -0.334509 0.147481 0.900255
v -0.281828 0.147481 0.917109
v -0.301004 0.143402 0.886288
v 0.929422 0.147481 -0.285768
v 0.951977 0.143402 -0.322020
v 0.912568 0.147481 -0.338448
v 0.967914 0.147481 -0.027655
v 0.967914 0.147481 0.027655
v 1.000000 0.143402 -0.000000
v 0.802670 0.147481 -0.554136
v 0.812611 0.143402 -0.595542
v 0.770159 0.147481 -0.598883
v 0.598883 0.147481 -0.770159
v 0.595542 0.143402 -0.812611
v 0.554136 0.147481 -0.802670
v 0.338448 0.147481 -0.912568
v 0.322020 0.143402 -0.951977
v 0.285768 0.147481 -0.929422
v 0.027655 0.147481 -0.967914
v 0.000000 0.143402 -1.000000
v -0.027655 0.147481 -0.967914
v -0.338448 0.147481 0.912568
v -0.322020 0.143402 0.951977
v -0.285768 0.147481 0.929422
v -0.554136 0.147481 0.802670
v -0.598883 0.147481 0.770159
v -0.595542 0.143402 0.812611
v -0.770159 0.147481 0.598883
v -0.802670 0.147481 0.554136
v -0.812611 0.143402 0.595542
v -0.912568 0.147481 0.338448
v -0.929422 0.147481 0.285768
v -0.951977 0.143402 0.322020
v 0.285768 0.147481 0.929422
v 0.322020 0.143402 0.951977
v 0.338448 0.147481 0.912568
v 0.027655 0.147481 0.967914
v -0.027655 0.147481 0.967914
v 0.000000 0.143402 1.000000
v 0.554136 0.147481 0.802670
v 0.595542 0.143402 0.812611
v 0.598883 0.147481 0.770159
v 0.770159 0.147481 0.598883
v 0.812611 0.143402 0.595542
v 0.802670 0.147481 0.554136
v 0.912568 0.147481 0.338448
v 0.951977 0.143402 0.322020
v 0.929422 0.147481 0.285768
v -0.554136 0.147481 -0.802670
v -0.595542 0.143402 -0.812611
v -0.598883 0.147481 -0.770159
v -0.338448 0.147481 -0.912568
v -0.285768 0.147481 -0.929422
v -0.322020 0.143402 -0.951977
v -0.770159 0.147481 -0.598883
v -0.812611 0.143402 -0.595542
v -0.802670 0.147481 -0.554136
v -0.912568 0.147481 -0.338448
v -0.951977 0.143402 -0.322020
v -0.929422 0.147481 -0.285768
v -0.967914 0.147481 -0.027655
v -1.000000 0.143402 -0.000000
v -0.967914 0.147481 0.027655
v 0.000000 -0.147481 -0.658530
v 0.000000 -0.097672 -1.000000
v 0.000000 -0.132892 -0.899986
v 1.000000 -0.097672 0.000000
v 0.658530 -0.147481 0.000000
v 0.899986 -0.132892 0.000000
v 0.217749 -0.147481 -0.626057
v 0.322020 -0.097672 -0.951977
v 0.291480 -0.132892 -0.856518
v 0.394552 -0.147481 -0.535971
v 0.595542 -0.097672 -0.812611
v 0.536674 -0.132892 -0.731585
v 0.535971 -0.147481 -0.394552
v 0.812611 -0.097672 -0.595542
v 0.731585 -0.132892 -0.536674
v 0.626057 -0.147481 -0.217749
v 0.951977 -0.097672 -0.322020
v 0.856518 -0.132892 -0.291480
v 0.000000 -0.097672 1.000000
v 0.000000 -0.147481 0.658530
v 0.000000 -0.132892 0.899986
v 0.626057 -0.147481 0.217749
v 0.951977 -0.097672 0.322020
v 0.856518 -0.132892 0.291480
v 0.535971 -0.147481 0.394552
v 0.812611 -0.097672 0.595542
v 0.731585 -0.132892 0.536674
v 0.394552 -0.147481 0.535971
v 0.595542 -0.097672 0.812611
v 0.536674 -0.132892 0.731585
v 0.217749 -0.147481 0.626057
v 0.322020 -0.097672 0.951977
v 0.291480 -0.132892 0.856518
v -0.658530 -0.147481 0.000000
v -1.000000 -0.097672 0.000000
v -0.899986 -0.132892 0.000000
v -0.626057 -0.147481 -0.217749
v -0.951977 -0.097672 -0.322020
v -0.856518 -0.132892 -0.291480
v -0.535971 -0.147481 -0.394552
v -0.812611 -0.097672 -0.595542
v -0.731585 -0.132892 -0.536674
v -0.394552 -0.147481 -0.535971
v -0.595542 -0.097672 -0.812611
v -0.536674 -0.132892 -0.731585
v -0.322020 -0.097672 -0.951977
v -0.217749 -0.147481 -0.626057
v -0.291480 -0.132892 -0.856518
v -0.217749 -0.147481 0.626057
v -0.322020 -0.097672 0.951977
v -0.291480 -0.132892 0.856518
v -0.595542 -0.097672 0.812611
v -0.394552 -0.147481 0.535971
v -0.536674 -0.132892 0.731585
v -0.812611 -0.097672 0.595542
v -0.535971 -0.147481 0.394552
v -0.731585 -0.132892 0.536674
v -0.951977 -0.097672 0.322020
v -0.626057 -0.147481 0.217749
v -0.856518 -0.132892 0.291480
vn -0.1475 -0.0000 -0.9891
vn -0.8910 -0.0000 -0.4540
vn 0.1475 -0.0000 0.9891
vn 0.4540 -0.0000 -0.8910
vn 0.7071 -0.0000 -0.7071
vn -0.0000 -1.0000 -0.0000
vn 0.9891 -0.0000 -0.1475
vn -0.8910 -0.0000 0.4540
vn 0.8910 -0.0000 0.4540
vn -0.1475 -0.0000 0.9891
vn -0.9891 -0.0000 -0.1475
vn 0.4540 -0.0000 0.8910
vn 0.7071 -0.0000 0.7071
vn -0.4540 -0.0000 0.8910
vn 0.8910 -0.0000 -0.4540
vn -0.7071 -0.0000 0.7071
vn -0.4540 -0.0000 -0.8910
vn -0.7071 -0.0000 -0.7071
vn -0.9891 -0.0000 0.1475
vn 0.9891 -0.0000 0.1475
vn 0.1475 -0.0000 -0.9891
vn -0.0000 1.0000 -0.0000
vn -0.1687 0.9857 -0.0000
vn -0.0000 0.9857 0.1687
vn -0.1628 0.9853 0.0521
vn -0.1377 0.9854 0.1000
vn -0.1000 0.9854 0.1377
vn -0.0521 0.9853 0.1628
vn -0.0000 0.9857 -0.1687
vn -0.0521 0.9853 -0.1628
vn -0.1000 0.9854 -0.1377
vn -0.1377 0.9854 -0.1000
vn -0.1628 0.9853 -0.0521
vn 0.1687 0.9857 -0.0000
vn 0.0521 0.9853 0.1628
vn 0.1000 0.9854 0.1377
vn 0.1377 0.9854 0.1000
vn 0.1628 0.9853 0.0521
vn 0.1628 0.9853 -0.0521
vn 0.1377 0.9854 -0.1000
vn 0.1000 0.9854 -0.1377
vn 0.0521 0.9853 -0.1628
vn 0.1185 0.9922 -0.0379
vn 0.1261 0.9920 -0.0000
vn 0.1011 0.9922 -0.0735
vn 0.0735 0.9922 -0.1011
vn 0.0379 0.9922 -0.1185
vn -0.0000 0.9920 -0.1261
vn -0.0379 0.9922 0.1185
vn -0.0735 0.9922 0.1011
vn -0.1011 0.9922 0.0735
vn -0.1185 0.9922 0.0379
vn 0.0379 0.9922 0.1185
vn -0.0000 0.9920 0.1261
vn 0.0735 0.9922 0.1011
vn 0.1011 0.9922 0.0735
vn 0.1185 0.9922 0.0379
vn -0.0735 0.9922 -0.1011
vn -0.0379 0.9922 -0.1185
vn -0.1011 0.9922 -0.0735
vn -0.1185 0.9922 -0.0379
vn -0.1261 0.9920 -0.0000
vn 0.1443 0.9893 -0.0215
vn 0.1300 0.9893 -0.0662
vn 0.1032 0.9893 -0.1032
vn 0.0662 0.9893 -0.1300
vn 0.0215 0.9893 -0.1443
vn -0.0662 0.9893 0.1300
vn -0.1032 0.9893 0.1032
vn -0.1300 0.9893 0.0662
vn 0.0215 0.9893 0.1443
vn 0.0662 0.9893 0.1300
vn 0.1032 0.9893 0.1032
vn 0.1300 0.9893 0.0662
vn -0.0662 0.9893 -0.1300
vn -0.1032 0.9893 -0.1032
vn -0.1300 0.9893 -0.0662
vn -0.1443 0.9893 -0.0215
vn -0.0215 0.9893 0.1443
vn -0.1443 0.9893 0.0215
vn 0.1443 0.9893 0.0215
vn -0.0215 0.9893 -0.1443
vn 0.0603 -0.9981 -0.0090
vn 0.3318 -0.9421 -0.0495
vn 0.0543 -0.9981 -0.0277
vn 0.2989 -0.9421 -0.1523
vn 0.0431 -0.9981 -0.0431
vn 0.2372 -0.9421 -0.2372
vn 0.0277 -0.9981 -0.0543
vn 0.1523 -0.9421 -0.2989
vn 0.0090 -0.9981 -0.0603
vn 0.0495 -0.9421 -0.3318
vn -0.0277 -0.9981 0.0543
vn -0.1523 -0.9421 0.2989
vn -0.0431 -0.9981 0.0431
vn -0.2372 -0.9421 0.2372
vn -0.0543 -0.9981 0.0277
vn -0.2989 -0.9421 0.1523
vn 0.0090 -0.9981 0.0603
vn 0.0495 -0.9421 0.3318
vn 0.0277 -0.9981 0.0543
vn 0.1523 -0.9421 0.2989
vn 0.0431 -0.9981 0.0431
vn 0.2372 -0.9421 0.2372
vn 0.0543 -0.9981 0.0277
vn 0.2989 -0.9421 0.1523
vn -0.0277 -0.9981 -0.0543
vn -0.1523 -0.9421 -0.2989
vn -0.0431 -0.9981 -0.0431
vn -0.2372 -0.9421 -0.2372
vn -0.0543 -0.9981 -0.0277
vn -0.2989 -0.9421 -0.1523
vn -0.0603 -0.9981 -0.0090
vn -0.3318 -0.9421 -0.0495
vn -0.0090 -0.9981 -0.0603
vn -0.0495 -0.9421 -0.3318
vn 0.0603 -0.9981 0.0090
vn 0.3318 -0.9421 0.0495
vn -0.0603 -0.9981 0.0090
vn -0.3318 -0.9421 0.0495
vn -0.0090 -0.9981 0.0603
vn -0.0495 -0.9421 0.3318
vt 0.621543 0.372648
vt 0.417217 0.372648
vt 0.417217 0.334747
vt 0.621543 0.334747
vt 0.655385 0.694360
vt 0.639211 0.662417
vt 0.621543 0.872648
vt 0.417217 0.872648
vt 0.417217 0.834747
vt 0.621543 0.834747
vt 0.621543 0.449443
vt 0.417217 0.449443
vt 0.417217 0.415253
vt 0.621543 0.415253
vt 0.621543 0.550557
vt 0.417217 0.550557
vt 0.167684 0.624412
vt 0.171768 0.597427
vt 0.183064 0.575539
vt 0.200823 0.557944
vt 0.223136 0.546718
vt 0.250588 0.542684
vt 0.277573 0.546768
vt 0.299461 0.558064
vt 0.317057 0.575823
vt 0.328282 0.598136
vt 0.332316 0.625588
vt 0.328232 0.652573
vt 0.316936 0.674461
vt 0.299177 0.692057
vt 0.276864 0.703282
vt 0.249412 0.707316
vt 0.222427 0.703233
vt 0.200539 0.691936
vt 0.182943 0.674177
vt 0.171718 0.651864
vt 0.621543 0.622648
vt 0.417217 0.622648
vt 0.417217 0.584747
vt 0.621543 0.584747
vt 0.417217 0.050557
vt 0.621543 0.050557
vt 0.621543 0.084747
vt 0.417217 0.084747
vt 0.621543 0.699443
vt 0.417217 0.699443
vt 0.417217 0.665253
vt 0.621543 0.665253
vt 0.621543 0.199443
vt 0.417217 0.199443
vt 0.417217 0.165253
vt 0.621543 0.165253
vt 0.417217 0.877352
vt 0.621543 0.877352
vt 0.621543 0.915253
vt 0.417217 0.915253
vt 0.417217 0.127352
vt 0.621543 0.127352
vt 0.417217 0.800557
vt 0.621543 0.800557
vt 0.621543 0.949443
vt 0.417217 0.949443
vt 0.417217 0.000000
vt 0.621543 0.000000
vt 0.417217 0.300557
vt 0.621543 0.300557
vt 0.621543 0.122648
vt 0.417217 0.122648
vt 0.633603 0.623248
vt 0.655401 0.555601
vt 0.680640 0.530385
vt 0.712583 0.514211
vt 0.748248 0.741397
vt 0.712166 0.735783
vt 0.751752 0.508603
vt 0.787834 0.514217
vt 0.417217 0.627352
vt 0.621543 0.627352
vt 0.819360 0.719615
vt 0.787417 0.735789
vt 0.844599 0.694399
vt 0.655031 0.698900
vt 0.676078 0.719958
vt 0.675132 0.721266
vt 0.653726 0.699853
vt 0.680601 0.719599
vt 0.860789 0.587583
vt 0.866397 0.626752
vt 0.819399 0.530401
vt 0.844615 0.555641
vt 0.860783 0.662834
vt 0.714476 0.739637
vt 0.744718 0.744377
vt 0.744614 0.745989
vt 0.714014 0.741177
vt 0.635363 0.589476
vt 0.630624 0.619719
vt 0.629011 0.619614
vt 0.633823 0.589014
vt 0.639217 0.587166
vt 0.708301 0.512466
vt 0.681703 0.525968
vt 0.680748 0.524663
vt 0.707772 0.510927
vt 0.637466 0.666699
vt 0.650968 0.693297
vt 0.649663 0.694252
vt 0.635927 0.667228
vt 0.748368 0.505623
vt 0.715067 0.510360
vt 0.714544 0.508821
vt 0.748472 0.504011
vt 0.785524 0.510363
vt 0.755282 0.505624
vt 0.755386 0.504011
vt 0.785986 0.508823
vt 0.818339 0.525977
vt 0.791928 0.512470
vt 0.792384 0.510930
vt 0.819282 0.524669
vt 0.791699 0.737534
vt 0.818297 0.724032
vt 0.819252 0.725337
vt 0.792228 0.739073
vt 0.844969 0.551100
vt 0.823922 0.530042
vt 0.824868 0.528734
vt 0.846274 0.550147
vt 0.823900 0.719969
vt 0.844958 0.698922
vt 0.846266 0.699868
vt 0.824853 0.721274
vt 0.862534 0.583301
vt 0.849032 0.556703
vt 0.850337 0.555748
vt 0.864073 0.582772
vt 0.849023 0.693339
vt 0.862530 0.666928
vt 0.864069 0.667384
vt 0.850331 0.694282
vt 0.630623 0.626632
vt 0.635360 0.659933
vt 0.633821 0.660456
vt 0.629011 0.626528
vt 0.869377 0.623368
vt 0.864640 0.590067
vt 0.866179 0.589544
vt 0.870990 0.623472
vt 0.751632 0.744377
vt 0.784933 0.739640
vt 0.785456 0.741179
vt 0.751528 0.745990
vt 0.650977 0.556661
vt 0.637470 0.583072
vt 0.635930 0.582616
vt 0.649669 0.555718
vt 0.681661 0.724023
vt 0.708072 0.737530
vt 0.707616 0.739070
vt 0.680718 0.725331
vt 0.676100 0.530031
vt 0.655042 0.551078
vt 0.653734 0.550132
vt 0.675147 0.528727
vt 0.864637 0.660524
vt 0.869377 0.630282
vt 0.870989 0.630386
vt 0.866176 0.660985
vt 0.633824 0.589159
vt 0.631003 0.584747
vt 0.632849 0.581124
vt 0.629011 0.619330
vt 0.625592 0.626846
vt 0.625000 0.622648
vt 0.648424 0.550557
vt 0.651702 0.552927
vt 0.675557 0.523424
vt 0.679164 0.521586
vt 0.707629 0.510927
vt 0.709747 0.506003
vt 0.714004 0.505403
vt 0.748756 0.504011
vt 0.752352 0.500000
vt 0.756087 0.500592
vt 0.790253 0.743997
vt 0.788915 0.740126
vt 0.822055 0.723306
vt 0.824443 0.726576
vt 0.853414 0.695836
vt 0.851576 0.699443
vt 0.864069 0.667241
vt 0.869597 0.661466
vt 0.868997 0.665253
vt 0.709747 0.743997
vt 0.710888 0.740123
vt 0.744330 0.745989
vt 0.751846 0.749408
vt 0.747648 0.750000
vt 0.675557 0.726576
vt 0.677927 0.723298
vt 0.648424 0.699443
vt 0.646586 0.695836
vt 0.631003 0.665252
vt 0.634874 0.663915
vt 0.824443 0.523424
vt 0.822073 0.526702
vt 0.789112 0.509877
vt 0.790253 0.506003
vt 0.851576 0.550557
vt 0.853414 0.554164
vt 0.864073 0.582629
vt 0.868997 0.584747
vt 0.869597 0.589004
vt 0.870990 0.623756
vt 0.875000 0.627352
vt 0.874408 0.631087
vt 0.369294 0.586858
vt 0.374728 0.625422
vt 0.375000 0.620930
vt 0.375000 0.586625
vt 0.352465 0.552302
vt 0.368082 0.582951
vt 0.375000 0.582951
vt 0.375000 0.552302
vt 0.325828 0.524808
vt 0.350192 0.549172
vt 0.375000 0.545397
vt 0.375000 0.454603
vt 0.292049 0.506918
vt 0.322698 0.522535
vt 0.375000 0.447698
vt 0.375000 0.417049
vt 0.254070 0.500272
vt 0.288375 0.505705
vt 0.375000 0.413375
vt 0.375000 0.379070
vt 0.417217 0.377352
vt 0.207951 0.743082
vt 0.177302 0.727466
vt 0.375000 0.947698
vt 0.375000 0.917049
vt 0.174172 0.725192
vt 0.149808 0.700828
vt 0.375000 0.047977
vt 0.375000 0.002580
vt 0.147535 0.697698
vt 0.131918 0.667049
vt 0.375000 0.082951
vt 0.375000 0.052302
vt 0.288142 0.744294
vt 0.249578 0.749728
vt 0.375000 0.870930
vt 0.375000 0.836625
vt 0.322698 0.727466
vt 0.292049 0.743082
vt 0.375000 0.832951
vt 0.375000 0.802302
vt 0.350192 0.700828
vt 0.325828 0.725192
vt 0.375000 0.795397
vt 0.375000 0.704603
vt 0.368082 0.667049
vt 0.352466 0.697698
vt 0.375000 0.697698
vt 0.375000 0.667049
vt 0.177302 0.522534
vt 0.207951 0.506918
vt 0.375000 0.332951
vt 0.375000 0.302302
vt 0.149808 0.549172
vt 0.174172 0.524808
vt 0.375000 0.295397
vt 0.375000 0.204603
vt 0.131918 0.582951
vt 0.147535 0.552302
vt 0.375000 0.197698
vt 0.375000 0.167049
vt 0.125272 0.620930
vt 0.130705 0.586625
vt 0.375000 0.163375
vt 0.375000 0.129070
vt 0.211858 0.505705
vt 0.250422 0.500272
vt 0.375000 0.370930
vt 0.375000 0.336625
vt 0.374728 0.629070
vt 0.369295 0.663375
vt 0.375000 0.663375
vt 0.375000 0.629070
vt 0.130705 0.663142
vt 0.125272 0.624578
vt 0.375000 0.120930
vt 0.375000 0.086625
vt 0.245930 0.749728
vt 0.211625 0.744295
vt 0.375000 0.913375
vt 0.375000 0.879070
vt 0.621543 0.377352
s 0
usemtl Material.006
f 97/1/1 142/2/1 186/3/1 131/4/1
f 50/5/2 53/6/2 15/6/2 14/5/2
f 116/7/3 159/8/3 172/9/3 112/10/3
f 91/11/4 151/12/4 148/13/4 94/14/4
f 88/15/5 154/16/5 151/12/5 91/11/5
f 174/17/6 177/18/6 180/19/6 183/20/6 187/21/6 141/22/6 147/23/6 150/24/6 153/25/6 156/26/6 145/27/6 162/28/6 165/29/6 168/30/6 171/31/6 160/32/6 189/33/6 193/34/6 196/35/6 199/36/6
f 86/37/7 144/38/7 157/39/7 82/40/7
f 195/41/8 107/42/8 110/43/8 198/44/8
f 121/45/9 166/46/9 163/47/9 124/48/9
f 133/49/2 181/50/2 178/51/2 136/52/2
f 159/53/10 116/54/10 100/55/10 190/56/10
f 136/52/11 178/51/11 175/57/11 139/58/11
f 112/10/12 172/9/12 169/59/12 118/60/12
f 118/60/13 169/59/13 166/46/13 121/45/13
f 190/56/14 100/55/14 104/61/14 192/62/14
f 82/40/15 157/39/15 154/16/15 88/15/15
f 192/63/16 104/64/16 107/42/16 195/41/16
f 131/4/17 186/3/17 184/65/17 127/66/17
f 127/66/18 184/65/18 181/50/18 133/49/18
f 198/44/19 110/43/19 139/67/19 175/68/19
f 53/6/11 21/69/11 2/69/11 15/6/11
f 32/70/16 35/71/16 4/71/16 3/70/16
f 35/71/14 38/72/14 5/72/14 4/71/14
f 39/73/1 44/74/1 11/74/1 12/73/1
f 26/75/3 57/76/3 17/76/3 6/75/3
f 124/48/20 163/47/20 144/77/20 86/78/20
f 75/79/4 80/80/4 7/80/4 8/79/4
f 72/81/5 75/79/5 8/79/5 9/81/5
f 80/80/21 39/73/21 12/73/21 7/80/21
f 48/82/22 46/83/22 119/84/22 120/85/22
f 47/86/18 50/5/18 14/5/18 13/86/18
f 68/87/20 56/88/20 20/88/20 19/87/20
f 62/89/13 65/90/13 18/90/13 16/89/13
f 65/90/9 68/87/9 19/87/9 18/90/9
f 69/91/15 72/81/15 9/81/15 10/91/15
f 56/88/7 69/91/7 10/91/7 20/88/7
f 42/92/22 41/93/22 114/94/22 111/95/22
f 57/76/12 62/89/12 16/89/12 17/76/12
f 27/96/22 23/97/22 84/98/22 81/99/22
f 29/100/8 32/70/8 3/70/8 1/100/8
f 36/101/22 34/102/22 92/103/22 93/104/22
f 38/72/10 26/75/10 6/75/10 5/72/10
f 51/105/22 49/106/22 122/107/22 123/108/22
f 24/109/22 37/110/22 95/111/22 96/112/22
f 58/113/22 25/114/22 98/115/22 130/116/22
f 60/117/22 59/118/22 129/119/22 126/120/22
f 78/121/22 77/122/22 102/123/22 99/124/22
f 63/125/22 61/126/22 128/127/22 132/128/22
f 76/129/22 74/130/22 105/131/22 103/132/22
f 66/133/22 64/134/22 134/135/22 135/136/22
f 73/137/22 71/138/22 108/139/22 106/140/22
f 22/141/22 52/142/22 125/143/22 85/144/22
f 54/145/22 67/146/22 137/147/22 138/148/22
f 40/149/22 79/150/22 101/151/22 115/152/22
f 30/153/22 28/154/22 83/155/22 87/156/22
f 44/74/17 47/86/17 13/86/17 11/74/17
f 45/157/22 43/158/22 113/159/22 117/160/22
f 33/161/22 31/162/22 89/163/22 90/164/22
f 70/165/22 55/166/22 140/167/22 109/168/22
f 21/69/23 22/141/23 23/97/23
f 24/109/24 25/114/24 26/75/24
f 27/96/25 28/154/25 29/100/25
f 30/153/26 31/162/26 32/70/26
f 33/161/27 34/102/27 35/71/27
f 36/101/28 37/110/28 38/72/28
f 39/73/29 40/149/29 41/93/29
f 42/92/30 43/158/30 44/74/30
f 45/157/31 46/83/31 47/86/31
f 48/82/32 49/106/32 50/5/32
f 51/105/33 52/142/33 53/6/33
f 54/145/34 55/166/34 56/88/34
f 57/76/35 58/113/35 59/118/35
f 60/117/36 61/126/36 62/89/36
f 63/125/37 64/134/37 65/90/37
f 66/133/38 67/146/38 68/87/38
f 69/91/39 70/165/39 71/138/39
f 72/81/40 73/137/40 74/130/40
f 75/79/41 76/129/41 77/122/41
f 78/121/42 79/150/42 80/80/42
f 81/169/43 82/170/43 83/171/43
f 84/172/44 85/173/44 86/174/44
f 87/156/45 88/175/45 89/176/45
f 90/164/46 91/177/46 92/178/46
f 93/179/47 94/180/47 95/181/47
f 96/182/48 97/183/48 98/184/48
f 99/124/49 100/185/49 101/186/49
f 102/123/50 103/187/50 104/188/50
f 105/131/51 106/189/51 107/190/51
f 108/191/52 109/192/52 110/193/52
f 111/95/53 112/194/53 113/195/53
f 114/196/54 115/197/54 116/198/54
f 117/160/55 118/199/55 119/200/55
f 120/85/56 121/201/56 122/202/56
f 123/108/57 124/203/57 125/204/57
f 126/120/58 127/205/58 128/206/58
f 129/119/59 130/207/59 131/208/59
f 132/128/60 133/209/60 134/210/60
f 135/211/61 136/212/61 137/213/61
f 138/214/62 139/215/62 140/216/62
f 81/99/63 84/98/63 86/174/63 82/170/63
f 87/156/64 83/155/64 82/170/64 88/175/64
f 90/164/65 89/163/65 88/175/65 91/177/65
f 93/104/66 92/103/66 91/177/66 94/180/66
f 96/112/67 95/111/67 94/180/67 97/183/67
f 99/124/68 102/123/68 104/188/68 100/185/68
f 103/132/69 105/131/69 107/190/69 104/188/69
f 106/140/70 108/139/70 110/193/70 107/190/70
f 111/95/71 114/94/71 116/198/71 112/194/71
f 117/160/72 113/159/72 112/194/72 118/199/72
f 120/85/73 119/84/73 118/199/73 121/201/73
f 123/108/74 122/107/74 121/201/74 124/203/74
f 126/120/75 129/119/75 131/208/75 127/205/75
f 132/128/76 128/127/76 127/205/76 133/209/76
f 135/136/77 134/135/77 133/209/77 136/212/77
f 138/148/78 137/147/78 136/212/78 139/215/78
f 115/152/79 101/151/79 100/185/79 116/198/79
f 109/168/80 140/167/80 139/215/80 110/193/80
f 85/144/81 125/143/81 124/203/81 86/174/81
f 130/116/82 98/115/82 97/183/82 131/208/82
f 29/100/80 21/69/80 23/97/80 27/96/80
f 32/70/70 29/100/70 28/154/70 30/153/70
f 35/71/69 32/70/69 31/162/69 33/161/69
f 38/72/68 35/71/68 34/102/68 36/101/68
f 26/75/79 38/72/79 37/110/79 24/109/79
f 80/80/66 75/79/66 77/122/66 78/121/66
f 75/79/65 72/81/65 74/130/65 76/129/65
f 72/81/64 69/91/64 71/138/64 73/137/64
f 44/74/82 39/73/82 41/93/82 42/92/82
f 47/86/75 44/74/75 43/158/75 45/157/75
f 50/5/76 47/86/76 46/83/76 48/82/76
f 53/6/77 50/5/77 49/106/77 51/105/77
f 62/89/72 57/76/72 59/118/72 60/117/72
f 65/90/73 62/89/73 61/126/73 63/125/73
f 68/87/74 65/90/74 64/134/74 66/133/74
f 56/88/81 68/87/81 67/146/81 54/145/81
f 39/73/67 80/80/67 79/150/67 40/149/67
f 69/91/63 56/88/63 55/166/63 70/165/63
f 21/69/78 53/6/78 52/142/78 22/141/78
f 57/76/71 26/75/71 25/114/71 58/113/71
f 83/155/22 28/154/22 27/96/22 81/99/22
f 22/141/22 85/144/22 84/98/22 23/97/22
f 89/163/22 31/162/22 30/153/22 87/156/22
f 92/103/22 34/102/22 33/161/22 90/164/22
f 95/111/22 37/110/22 36/101/22 93/104/22
f 98/115/22 25/114/22 24/109/22 96/112/22
f 101/151/22 79/150/22 78/121/22 99/124/22
f 76/129/22 103/132/22 102/123/22 77/122/22
f 73/137/22 106/140/22 105/131/22 74/130/22
f 70/165/22 109/168/22 108/139/22 71/138/22
f 113/159/22 43/158/22 42/92/22 111/95/22
f 40/149/22 115/152/22 114/94/22 41/93/22
f 119/84/22 46/83/22 45/157/22 117/160/22
f 122/107/22 49/106/22 48/82/22 120/85/22
f 125/143/22 52/142/22 51/105/22 123/108/22
f 128/127/22 61/126/22 60/117/22 126/120/22
f 58/113/22 130/116/22 129/119/22 59/118/22
f 134/135/22 64/134/22 63/125/22 132/128/22
f 137/147/22 67/146/22 66/133/22 135/136/22
f 140/167/22 55/166/22 54/145/22 138/148/22
f 21/69/19 29/100/19 1/100/19 2/69/19
f 145/27/83 156/26/83 158/217/83 146/218/83
f 146/219/84 158/220/84 157/39/84 144/38/84
f 156/26/85 153/25/85 155/221/85 158/222/85
f 158/223/86 155/224/86 154/16/86 157/39/86
f 153/25/87 150/24/87 152/225/87 155/226/87
f 155/227/88 152/228/88 151/12/88 154/16/88
f 150/24/89 147/23/89 149/229/89 152/230/89
f 152/231/90 149/232/90 148/13/90 151/12/90
f 147/23/91 141/22/91 143/233/91 149/234/91
f 149/235/92 143/236/92 142/237/92 148/13/92
f 193/34/93 189/33/93 191/238/93 194/239/93
f 194/240/94 191/241/94 190/56/94 192/62/94
f 196/35/95 193/34/95 194/242/95 197/243/95
f 197/244/96 194/245/96 192/63/96 195/41/96
f 199/36/97 196/35/97 197/246/97 200/247/97
f 200/248/98 197/249/98 195/41/98 198/44/98
f 160/32/99 171/31/99 173/250/99 161/251/99
f 161/252/100 173/253/100 172/9/100 159/8/100
f 171/31/101 168/30/101 170/254/101 173/255/101
f 173/256/102 170/257/102 169/59/102 172/9/102
f 168/30/103 165/29/103 167/258/103 170/259/103
f 170/260/104 167/261/104 166/46/104 169/59/104
f 165/29/105 162/28/105 164/262/105 167/263/105
f 167/264/106 164/265/106 163/47/106 166/46/106
f 187/21/107 183/20/107 185/266/107 188/267/107
f 188/268/108 185/269/108 184/65/108 186/3/108
f 183/20/109 180/19/109 182/270/109 185/271/109
f 185/272/110 182/273/110 181/50/110 184/65/110
f 180/19/111 177/18/111 179/274/111 182/275/111
f 182/276/112 179/277/112 178/51/112 181/50/112
f 177/18/113 174/17/113 176/278/113 179/279/113
f 179/280/114 176/281/114 175/57/114 178/51/114
f 141/22/115 187/21/115 188/282/115 143/283/115
f 143/284/116 188/285/116 186/3/116 142/2/116
f 162/28/117 145/27/117 146/286/117 164/287/117
f 164/288/118 146/289/118 144/77/118 163/47/118
f 174/17/119 199/36/119 200/290/119 176/291/119
f 176/292/120 200/293/120 198/44/120 175/68/120
f 189/33/121 160/32/121 161/294/121 191/295/121
f 191/296/122 161/297/122 159/53/122 190/56/122
f 94/14/21 148/13/21 142/237/21 97/298/21
usemtl Material.007
f 2/69/22 1/100/22 3/70/22 4/71/22 5/72/22 6/75/22 17/76/22 16/89/22 18/90/22 19/87/22 20/88/22 10/91/22 9/81/22 8/79/22 7/80/22 12/73/22 11/74/22 13/86/22 14/5/22 15/6/22
