# Blender 4.1.1
# www.blender.org
mtllib hand.mtl
o group589964233
v -0.123226 -0.027216 -0.032259
v -0.121863 -0.030332 0.021349
v -0.064434 0.021847 0.023837
v -0.275471 0.089978 -0.034759
v -0.278662 0.087061 0.010254
v -0.271548 0.037347 0.014953
v -0.192266 -0.020084 0.019621
v -0.198998 0.089668 0.021349
v -0.121863 0.089668 -0.038651
v -0.121863 0.089668 0.021349
v -0.117447 0.149246 0.008685
v -0.102342 0.044805 -0.030163
v -0.156862 -0.030332 -0.038651
v -0.161862 0.089668 0.021349
v -0.201862 0.089668 0.021349
v -0.241863 0.089668 0.021349
v -0.238318 0.150617 0.005798
v -0.205930 0.149770 0.005739
v -0.194462 0.167974 0.002407
v -0.162067 0.167981 0.002969
v -0.276011 0.129086 0.005073
v -0.249275 0.132806 0.009861
v -0.103420 0.046574 0.019591
v -0.161164 0.088548 -0.043339
v -0.149419 0.154050 0.006583
v -0.113395 0.149557 -0.038920
v -0.145478 0.153514 -0.041120
v -0.112950 0.217781 0.011621
v -0.110814 0.218211 -0.023741
v -0.201206 0.088573 -0.042571
v -0.160955 0.173679 -0.042402
v -0.193347 0.173047 -0.042026
v -0.194984 0.239668 0.011032
v -0.168740 0.239668 0.011032
v -0.241760 0.088236 -0.042673
v -0.237446 0.151741 -0.042140
v -0.205114 0.152636 -0.044029
v -0.234985 0.219668 0.011032
v -0.208741 0.219668 0.011032
v -0.281589 0.133830 -0.037861
v -0.250035 0.140482 -0.041003
v -0.280959 0.181732 0.008788
v -0.254937 0.185084 0.009426
v -0.136335 0.220803 0.010246
v -0.134200 0.221232 -0.025117
v -0.116031 0.228405 0.004296
v -0.114770 0.228659 -0.016585
v -0.194984 0.239668 -0.028334
v -0.168740 0.239668 -0.028334
v -0.190472 0.249668 0.004263
v -0.173253 0.249668 0.004263
v -0.234985 0.219668 -0.028334
v -0.208741 0.219668 -0.028334
v -0.229611 0.229668 0.002972
v -0.214114 0.229668 0.002972
v -0.282236 0.181832 -0.023222
v -0.256281 0.185702 -0.022866
v -0.074846 0.069980 0.023861
v -0.061294 0.071459 -0.015645
v -0.046564 0.030931 -0.004729
v -0.024749 0.059938 0.033191
v -0.067298 0.078590 0.042776
v -0.050503 0.048229 0.047909
v -0.040616 0.089643 0.023950
v -0.044305 0.060557 0.051476
v -0.028162 0.067650 0.040611
v -0.129840 0.230189 0.003484
v -0.128579 0.230443 -0.017397
v -0.190472 0.249668 -0.021565
v -0.173253 0.249668 -0.021565
v -0.229611 0.229668 -0.020273
v -0.214114 0.229668 -0.020273
v -0.279279 0.191919 -0.015759
v -0.269182 0.193481 -0.000125
v -0.262251 0.194458 -0.015526
v -0.054223 0.078485 0.048445
v -0.038079 0.085578 0.037580
v -0.226863 -0.030332 -0.038651
v -0.192750 -0.029657 -0.042178
v -0.251073 -0.028021 -0.022805
v -0.253972 -0.027577 0.007280
v -0.250232 0.039452 0.021349
v -0.223539 0.028128 0.025325
vn 0.6727 -0.7375 -0.0600
vn -0.9857 -0.1486 -0.0795
vn -0.0271 -0.0174 0.9995
vn 0.9973 -0.0739 -0.0000
vn 0.2513 -0.0733 -0.9651
vn -0.0000 -0.0000 1.0000
vn 0.0037 0.2493 0.9684
vn -0.0076 0.2321 0.9727
vn -0.2015 0.2196 0.9546
vn 0.9193 0.3934 -0.0000
vn -0.0000 0.2079 0.9781
vn -0.9823 0.1867 -0.0138
vn 0.0667 -0.0139 -0.9977
vn 0.9954 -0.0611 0.0737
vn -0.9958 0.0913 -0.0118
vn -0.0118 0.0110 -0.9999
vn 0.9999 0.0051 0.0107
vn -0.0095 -0.1161 0.9932
vn -0.9980 0.0619 -0.0089
vn -0.0587 0.0124 -0.9982
vn 0.9977 0.0660 0.0139
vn -0.0001 -0.0755 0.9971
vn -0.9851 -0.1294 0.1137
vn -0.0817 -0.0817 -0.9933
vn 0.9877 0.1565 -0.0019
vn -0.0252 0.0056 0.9997
vn -0.0682 -0.0398 0.9969
vn -0.9795 0.1880 -0.0719
vn 0.0895 0.2133 -0.9729
vn 0.9466 0.3166 0.0610
vn -1.0000 -0.0073 -0.0000
vn -0.0085 0.2043 -0.9789
vn 0.9957 0.0927 -0.0000
vn -0.0000 0.5606 0.8281
vn -0.9990 0.0436 -0.0094
vn -0.0000 0.1992 -0.9800
vn 0.9985 0.0540 -0.0000
vn -0.0000 0.6276 0.7786
vn -0.9989 -0.0256 0.0398
vn -0.0303 0.2912 -0.9562
vn 0.9877 0.1517 -0.0382
vn -0.2043 0.0713 0.9763
vn -0.5337 0.8446 -0.0416
vn 0.3800 -0.0834 -0.9212
vn 0.6588 -0.7305 0.1798
vn 0.5772 -0.8100 0.1035
vn 0.4020 -0.0991 -0.9103
vn -0.0358 -0.0082 0.9993
vn -0.6072 0.7740 -0.1793
vn -0.6825 -0.2622 0.6823
vn -0.4884 0.8511 -0.1925
vn 0.7638 0.2191 -0.6071
vn 0.6037 -0.4461 0.6607
vn 0.0258 0.5725 0.8195
vn -0.8360 0.5469 -0.0438
vn 0.1233 0.5921 -0.7963
vn 0.1270 0.9917 0.0197
vn -0.9115 0.4113 -0.0000
vn -0.0000 0.5606 -0.8281
vn 0.9115 0.4113 -0.0000
vn -0.0000 1.0000 -0.0000
vn -0.8809 0.4734 -0.0000
vn -0.0000 0.6276 -0.7786
vn 0.8809 0.4733 -0.0000
vn -0.5606 0.7777 0.2844
vn -0.0798 0.6079 -0.7900
vn 0.8761 0.2532 0.4104
vn -0.3974 -0.0650 0.9154
vn -0.1630 0.9289 0.3326
vn 0.8763 0.4814 -0.0195
vn 0.4039 0.3653 0.8387
vn -0.1018 -0.0465 -0.9937
vn 0.0971 -0.0357 -0.9946
vn -0.5500 -0.1960 -0.8118
vn 0.0027 -0.0226 -0.9997
vn -0.0192 -0.0047 -0.9998
vn -0.0192 0.0082 -0.9998
vn 0.0026 -0.0031 -1.0000
vn -0.2288 -0.0051 -0.9735
vn -0.2311 -0.0620 -0.9709
vn 0.1194 -0.0348 -0.9922
vn 0.1183 0.0054 -0.9930
vn -0.0000 -0.9822 -0.1881
vn -0.9734 -0.2104 -0.0907
vn -0.0912 -0.9958 0.0059
vn 0.1034 -0.9928 -0.0603
vn 0.1890 -0.0262 -0.9816
vn 0.9165 0.3999 0.0057
vn 0.9991 0.0388 0.0186
vn 0.1720 -0.0050 0.9851
vn -0.0000 -1.0000 -0.0000
vn 0.0968 -0.9885 0.1164
vn -0.1454 -0.9561 0.2545
vn -0.2948 0.1352 0.9459
vn -0.2658 -0.1838 0.9463
vn -0.9963 0.0546 -0.0671
vn -0.1642 -0.0848 0.9828
vn -0.9879 -0.1011 0.1172
vn 0.9850 0.1723 0.0113
vn 0.9942 0.1077 0.0014
vn -0.4931 0.8591 -0.1370
vn -0.8789 -0.1903 0.4374
vn 0.8405 0.1667 -0.5155
vn 0.5671 -0.6982 0.4369
vn 0.0949 -0.0000 0.9955
vn 0.9868 -0.1391 0.0831
vn -0.9681 0.2366 -0.0827
vn -0.0296 0.2289 0.9730
vn -0.9664 0.2541 0.0394
vn -0.1474 0.9891 -0.0036
vn 0.8884 0.4546 -0.0639
vn -0.9956 0.0927 -0.0144
vn -0.9994 -0.0190 -0.0273
vn 0.9997 -0.0027 0.0242
vn 0.9933 0.1091 0.0380
vn -0.0630 0.2243 -0.9725
vn -0.1651 0.3474 -0.9231
vn -0.1038 0.6651 0.7395
vn 0.5102 0.8601 -0.0048
vn -0.2915 0.0486 0.9553
vn -0.9552 -0.2377 -0.1763
vn -0.1028 0.1049 0.9892
vn -0.2224 -0.1884 0.9566
vn -0.1654 -0.2210 0.9611
vt 0.043927 0.111359
vt 0.041361 0.104032
vt 0.036271 0.105747
vt -0.137171 0.091032
vt -0.140832 0.094501
vt -0.138235 0.098203
vt 0.152507 0.075642
vt 0.142384 0.071345
vt 0.138326 0.077191
vt 0.104815 0.142084
vt 0.102728 0.136345
vt 0.097637 0.139520
vt -0.130584 0.087345
vt -0.139039 0.096552
vt -0.134107 0.095976
vt 0.148922 0.082287
vt 0.150711 0.078710
vt 0.152372 0.075388
vt 0.138189 0.076921
vt 0.145804 0.081651
vt 0.147484 0.078880
vt 0.142202 0.075446
vt 0.140214 0.078917
vt 0.145925 0.087117
vt 0.147541 0.084309
vt 0.140909 0.079675
vt 0.140767 0.079924
vt 0.138927 0.083150
vt 0.139867 0.090966
vt 0.141069 0.088502
vt 0.135663 0.089292
vt 0.152602 0.019146
vt 0.153696 0.013247
vt 0.149055 0.012565
vt 0.143816 0.089557
vt 0.140689 0.082697
vt 0.138725 0.086182
vt -0.095543 0.146240
vt -0.087975 0.142786
vt -0.093702 0.139775
vt -0.154011 0.085861
vt -0.152177 0.088532
vt -0.147250 0.085023
vt 0.119502 0.139015
vt 0.122284 0.136822
vt 0.117887 0.131538
vt 0.114123 0.134480
vt -0.105137 0.143091
vt -0.097099 0.138719
vt -0.102574 0.135418
vt -0.160073 0.078813
vt -0.158694 0.081745
vt -0.151070 0.077956
vt 0.116609 0.134879
vt 0.113412 0.127497
vt 0.108153 0.131266
vt 0.167670 0.079083
vt 0.168761 0.076696
vt 0.162171 0.073742
vt 0.160831 0.076692
vt -0.107200 0.139578
vt -0.103248 0.142295
vt -0.099727 0.136992
vt -0.105168 0.133614
vt -0.160720 0.072632
vt -0.159383 0.075583
vt -0.155197 0.069467
vt 0.120926 0.128148
vt 0.124521 0.124693
vt 0.121783 0.119106
vt 0.116858 0.123182
vt 0.166718 0.076759
vt 0.167838 0.074386
vt 0.161717 0.071130
vt 0.160258 0.074024
vt -0.106328 0.137981
vt -0.102985 0.140773
vt -0.100855 0.136878
vt -0.158789 0.069731
vt -0.157949 0.072861
vt -0.154601 0.068261
vt 0.132094 0.113345
vt 0.132657 0.105280
vt 0.128144 0.109823
vt 0.162766 0.075821
vt 0.163644 0.073348
vt 0.157846 0.073963
vt 0.160200 0.089313
vt 0.161512 0.087349
vt 0.156118 0.083189
vt 0.154264 0.085846
vt -0.108672 0.145470
vt -0.105703 0.147403
vt -0.100726 0.142411
vt -0.104786 0.139876
vt -0.165076 0.074600
vt -0.163903 0.076650
vt -0.157549 0.073629
vt -0.159136 0.070805
vt 0.163753 0.052967
vt 0.164495 0.051011
vt 0.163713 0.049939
vt 0.162458 0.053252
vt -0.119884 0.141587
vt -0.116697 0.143898
vt -0.114978 0.136289
vt -0.169193 0.070118
vt -0.168187 0.072542
vt -0.161657 0.070676
vt -0.162848 0.067663
vt 0.129190 0.131387
vt 0.132143 0.128784
vt 0.126777 0.123916
vt 0.123925 0.078306
vt 0.124826 0.076838
vt 0.124033 0.075822
vt 0.122659 0.078058
vt -0.113807 0.143538
vt -0.110543 0.145739
vt -0.105597 0.140877
vt -0.109507 0.138099
vt -0.168919 0.066075
vt -0.167905 0.068496
vt -0.162621 0.063171
vt 0.122220 0.136336
vt 0.125291 0.133873
vt 0.116795 0.132082
vt 0.116236 0.068690
vt 0.117046 0.067369
vt 0.116232 0.066240
vt 0.114860 0.068477
vt -0.110874 0.141657
vt -0.108217 0.143446
vt -0.104333 0.140268
vt -0.166409 0.053135
vt -0.165867 0.055702
vt -0.161678 0.051458
vt 0.129468 0.123406
vt 0.131787 0.121153
vt 0.125038 0.121284
vt 0.135863 0.097703
vt 0.135320 0.094025
vt 0.129596 0.088565
vt -0.047260 0.090714
vt -0.044366 0.086509
vt -0.049103 0.084973
vt -0.126995 0.109889
vt -0.122583 0.098979
vt -0.127322 0.104794
vt 0.077617 0.103585
vt 0.074793 0.098773
vt 0.072755 0.101606
vt 0.052528 0.085129
vt 0.058229 0.093355
vt 0.060315 0.090558
vt -0.124322 0.112497
vt -0.119984 0.111513
vt -0.120118 0.101506
vt 0.137837 0.077836
vt 0.139912 0.085317
vt 0.144679 0.086552
vt -0.071586 0.090411
vt -0.073237 0.093742
vt -0.069845 0.096183
vt 0.133088 0.092842
vt 0.136595 0.092885
vt 0.131868 0.089207
vt -0.071009 0.076672
vt -0.070070 0.079989
vt -0.068841 0.076237
vt -0.117167 0.118612
vt -0.113715 0.118087
vt -0.114035 0.112847
vt 0.134712 0.087576
vt 0.135113 0.085545
vt 0.134048 0.084600
vt 0.133605 0.087758
vt 0.119534 0.078839
vt 0.120421 0.077763
vt 0.119776 0.076604
vt 0.118273 0.078426
vt -0.074002 0.140022
vt -0.072091 0.140873
vt -0.070976 0.140154
vt -0.074212 0.138712
vt -0.152461 0.024874
vt -0.152090 0.026218
vt -0.150770 0.026355
vt -0.151399 0.024079
vt -0.000655 -0.018664
vt -0.002550 -0.019549
vt -0.003141 -0.018285
vt -0.001245 -0.017400
vt -0.076880 0.151751
vt -0.074492 0.152734
vt -0.073449 0.151978
vt -0.077088 0.150478
vt -0.156465 0.033604
vt -0.156105 0.035288
vt -0.154830 0.035476
vt -0.155378 0.032910
vt 0.168803 0.010204
vt 0.169122 0.007641
vt 0.168116 0.006834
vt 0.167630 0.010740
vt -0.010711 -0.001849
vt -0.010132 -0.003471
vt -0.012564 -0.004339
vt -0.013143 -0.002718
vt -0.070610 0.144505
vt -0.068445 0.145351
vt -0.067281 0.144587
vt -0.070948 0.143154
vt -0.148668 0.020727
vt -0.148415 0.022256
vt -0.147060 0.022577
vt -0.147488 0.019988
vt 0.161452 -0.025761
vt 0.161239 -0.028075
vt 0.160034 -0.028774
vt 0.160395 -0.024854
vt -0.009458 -0.005741
vt -0.008937 -0.007200
vt -0.011126 -0.007982
vt -0.011647 -0.006522
vt 0.004232 0.103731
vt 0.006041 0.103267
vt 0.003752 0.101906
vt -0.147686 0.024586
vt -0.147610 0.026307
vt -0.146384 0.026704
vt -0.146499 0.024083
vt 0.167772 0.051496
vt 0.168293 0.049886
vt 0.166594 0.052020
vt 0.134226 0.102197
vt 0.136297 0.102212
vt 0.137023 0.100986
vt 0.133516 0.100962
vt 0.018621 0.053960
vt 0.019042 0.055988
vt 0.020435 0.056370
vt 0.019679 0.053006
vt 0.137701 -0.036417
vt 0.135630 -0.036455
vt 0.138350 -0.035126
vt 0.136666 0.062099
vt 0.136677 0.060028
vt 0.134606 0.060016
vt 0.134595 0.062087
vt -0.141538 0.069088
vt -0.143001 0.065986
vt -0.154275 0.069967
vt -0.136776 0.078398
vt -0.138542 0.075253
vt -0.147481 0.083609
vt -0.144653 0.053028
vt -0.146004 0.050459
vt -0.157602 0.053937
vt -0.157526 0.078641
vt -0.151637 0.076085
vt -0.153445 0.072455
vt -0.141554 0.070246
vt -0.152513 0.074762
vt -0.150725 0.078346
vt -0.151093 0.077867
vt -0.152869 0.074277
vt -0.160096 0.078722
vt -0.154031 0.071702
vt -0.152242 0.075342
vt -0.141295 0.070797
vt -0.161434 0.068100
vt -0.156352 0.066623
vt -0.157994 0.063569
vt -0.157072 0.063898
vt -0.155417 0.066945
vt -0.144119 0.063031
vt -0.136319 0.079234
vt -0.147002 0.084488
vt -0.145211 0.088020
vt -0.146947 0.085935
vt -0.148683 0.082376
vt -0.153704 0.086792
vt -0.020500 0.005288
vt -0.019442 0.008551
vt -0.017655 0.011684
vt -0.146876 0.081756
vt -0.137221 0.074448
vt -0.138886 0.071925
vt 0.006412 -0.024392
vt 0.003695 -0.023069
vt 0.003058 -0.020237
vt 0.006333 0.018823
vt 0.008088 0.021779
vt 0.013171 0.020042
vt -0.138834 0.090252
vt -0.133577 0.084900
vt -0.134983 0.081762
vt 0.148736 0.009305
vt 0.147744 0.014185
vt 0.152440 0.015799
vt 0.126392 0.132966
vt 0.121559 0.127881
vt 0.117881 0.131247
vt 0.152500 0.075132
vt 0.154289 0.071554
vt 0.150172 0.068560
vt 0.144716 0.066147
vt 0.154920 0.070246
vt 0.150436 0.065353
vt 0.007298 -0.006323
vt 0.009653 0.000269
vt 0.016480 0.001547
vt 0.036168 0.005436
vt 0.033217 -0.000172
vt 0.029538 0.003699
vt 0.050204 -0.027133
vt 0.048644 -0.034076
vt 0.042097 -0.036107
vt 0.142733 0.092946
vt 0.139291 0.090466
vt 0.137334 0.093785
vt 0.151918 0.064694
vt 0.152613 0.062569
vt 0.145966 0.061284
vt -0.110925 0.128358
vt -0.114329 0.125381
vt -0.116465 0.129046
vt 0.164366 0.073260
vt 0.159433 0.071318
vt 0.158574 0.073922
vt -0.096949 0.145346
vt -0.100410 0.142702
vt -0.103409 0.147073
vt 0.136601 0.107251
vt 0.139353 0.102904
vt 0.136799 0.099168
vt 0.131522 0.122460
vt 0.127992 0.118562
vt 0.124773 0.122575
vt -0.062805 0.082376
vt -0.058170 0.081044
vt -0.061577 0.078624
vt 0.046494 0.159827
vt 0.048008 0.158215
vt 0.045635 0.153901
vt -0.075697 0.143078
vt -0.079419 0.145514
vt -0.076779 0.149550
vt 0.105127 0.085875
vt 0.105653 0.082730
vt 0.102161 0.081149
vt 0.139699 0.074021
vt 0.145807 0.079047
vt 0.150493 0.079264
vt 0.103885 0.134097
vt 0.107268 0.139111
vt 0.111167 0.136349
vt -0.101870 0.140073
vt -0.097768 0.142541
vt -0.094181 0.136897
vt 0.141420 0.091391
vt 0.143458 0.088871
vt 0.138344 0.084508
vt -0.077520 0.153897
vt -0.076414 0.153235
vt -0.079356 0.151968
vt -0.017578 0.014832
vt -0.017010 0.013207
vt -0.018817 0.013679
vt 0.140986 -0.027910
vt 0.140172 -0.027136
vt 0.143571 -0.026334
vt -0.105439 0.142842
vt -0.101950 0.145642
vt -0.097393 0.138485
vt -0.123275 0.138264
vt -0.118044 0.133915
vt -0.121200 0.130745
vt 0.109393 0.130267
vt 0.114611 0.136993
vt 0.117883 0.133797
vt 0.134775 0.114539
vt 0.131998 0.118174
vt 0.137733 0.121811
vt -0.167767 0.066789
vt -0.161233 0.064591
vt -0.162385 0.061562
vt -0.162915 0.054650
vt -0.158082 0.053770
vt -0.158569 0.050567
vt 0.104157 0.070305
vt 0.103518 0.068529
vt 0.102333 0.070871
vt 0.037971 -0.092086
vt 0.036313 -0.091139
vt 0.039177 -0.089640
vt 0.139893 0.085608
vt 0.143739 0.088943
vt 0.145548 0.085541
vt 0.140890 0.083607
vt -0.153824 0.065148
vt -0.144686 0.056375
vt -0.151142 0.058412
vt 0.143263 0.076683
vt 0.140940 0.078462
vt 0.145130 0.083610
vt 0.152580 0.062915
vt 0.146575 0.059598
vt 0.150460 0.064933
vt 0.147581 0.055301
vt 0.145944 0.061423
vt 0.151645 0.060500
s 0
usemtl mat15
f 3/1/1 2/2/1 1/3/1
f 6/4/2 5/5/2 4/6/2
f 8/7/3 7/8/3 2/9/3
f 11/10/4 10/11/4 9/12/4
f 13/13/5 9/14/5 12/15/5
f 10/16/6 14/17/6 8/18/6 2/19/6
f 18/20/7 17/21/7 16/22/7 15/23/7
f 20/24/8 19/25/8 15/26/8 8/27/8 14/28/8
f 22/29/9 21/30/9 16/31/9
f 9/32/10 10/33/10 23/34/10
f 11/35/11 14/36/11 10/37/11
f 25/38/12 24/39/12 14/40/12
f 27/41/13 26/42/13 9/43/13
f 29/44/14 28/45/14 11/46/14 26/47/14
f 19/48/15 30/49/15 15/50/15
f 32/51/16 31/52/16 24/53/16
f 20/54/17 14/55/17 24/56/17
f 34/57/18 33/58/18 19/59/18 20/60/18
f 17/61/19 36/62/19 35/63/19 16/64/19
f 36/65/20 37/66/20 35/67/20
f 37/68/21 18/69/21 15/70/21 30/71/21
f 39/72/22 38/73/22 17/74/22 18/75/22
f 21/76/23 40/77/23 4/78/23
f 40/79/24 41/80/24 4/81/24
f 41/82/25 16/83/25 35/84/25
f 43/85/26 42/86/26 22/87/26
f 28/88/27 44/89/27 25/90/27 11/91/27
f 44/92/28 45/93/28 27/94/28 25/95/28
f 45/96/29 29/97/29 26/98/29 27/99/29
f 47/100/30 46/101/30 28/102/30 29/103/30
f 33/104/31 48/105/31 19/106/31
f 48/107/32 49/108/32 31/109/32 32/110/32
f 49/111/33 34/112/33 20/113/33
f 51/114/34 50/115/34 33/116/34 34/117/34
f 38/118/35 52/119/35 36/120/35 17/121/35
f 52/122/36 53/123/36 36/124/36
f 53/125/37 39/126/37 37/127/37
f 55/128/38 54/129/38 38/130/38 39/131/38
f 42/132/39 56/133/39 40/134/39
f 56/135/40 57/136/40 40/137/40
f 57/138/41 43/139/41 41/140/41
f 58/141/42 23/142/42 2/143/42
f 59/144/43 12/145/43 23/146/43
f 59/147/44 1/148/44 12/149/44
f 61/150/45 3/151/45 60/152/45
f 1/153/46 60/154/46 3/155/46
f 59/156/47 60/157/47 1/158/47
f 2/159/48 3/160/48 58/161/48
f 23/162/49 58/163/49 59/164/49
f 63/165/50 62/166/50 3/167/50
f 62/168/51 64/169/51 58/170/51
f 64/171/52 61/172/52 60/173/52
f 66/174/53 65/175/53 63/176/53 61/177/53
f 46/178/54 67/179/54 44/180/54 28/181/54
f 67/182/55 68/183/55 45/184/55 44/185/55
f 68/186/56 47/187/56 29/188/56 45/189/56
f 68/190/57 67/191/57 46/192/57 47/193/57
f 50/194/58 69/195/58 48/196/58 33/197/58
f 69/198/59 70/199/59 49/200/59 48/201/59
f 70/202/60 51/203/60 34/204/60 49/205/60
f 70/206/61 69/207/61 50/208/61 51/209/61
f 54/210/62 71/211/62 52/212/62 38/213/62
f 71/214/63 72/215/63 53/216/63 52/217/63
f 72/218/64 55/219/64 39/220/64 53/221/64
f 72/222/61 71/223/61 54/224/61 55/225/61
f 74/226/65 73/227/65 42/228/65
f 73/229/66 75/230/66 57/231/66 56/232/66
f 75/233/67 74/234/67 57/235/67
f 65/236/68 76/237/68 62/238/68 63/239/68
f 76/240/69 77/241/69 64/242/69 62/243/69
f 77/244/70 66/245/70 64/246/70
f 77/247/71 76/248/71 65/249/71 66/250/71
f 79/251/72 78/252/72 35/253/72
f 13/254/73 79/255/73 24/256/73
f 78/257/74 80/258/74 4/259/74
f 37/260/75 30/261/75 35/262/75
f 79/263/76 30/264/76 24/265/76
f 24/266/77 30/267/77 32/268/77
f 35/269/78 30/270/78 79/271/78
f 41/272/79 35/273/79 4/274/79
f 4/275/80 35/276/80 78/277/80
f 13/278/81 24/279/81 9/280/81
f 9/281/82 24/282/82 27/283/82
f 78/284/83 79/285/83 13/286/83
f 4/287/84 80/288/84 81/289/84
f 81/290/85 80/291/85 78/292/85
f 13/293/86 1/294/86 2/295/86
f 12/296/87 1/297/87 13/298/87
f 23/299/88 12/300/88 9/301/88
f 39/302/89 18/303/89 37/304/89
f 8/18/6 15/305/6 16/306/6 82/307/6
f 7/308/90 8/309/90 83/310/90
f 78/311/91 13/312/91 2/313/91
f 7/314/92 81/315/92 78/316/92
f 2/317/93 7/318/93 78/319/93
f 21/320/94 5/321/94 16/322/94
f 82/323/95 6/324/95 81/325/95
f 4/326/96 5/327/96 21/328/96
f 42/329/97 21/330/97 22/331/97
f 40/332/98 21/333/98 42/334/98
f 41/335/99 22/336/99 16/337/99
f 43/338/100 22/339/100 41/340/100
f 64/341/101 59/342/101 58/343/101
f 62/344/102 58/345/102 3/346/102
f 60/347/103 59/348/103 64/349/103
f 61/350/104 63/351/104 3/352/104
f 2/353/105 23/354/105 10/355/105
f 9/356/106 26/357/106 11/358/106
f 25/359/107 27/360/107 24/361/107
f 11/362/108 25/363/108 14/364/108
f 73/365/109 56/366/109 42/367/109
f 75/368/110 73/369/110 74/370/110
f 66/371/111 61/372/111 64/373/111
f 19/374/112 32/375/112 30/376/112
f 48/377/113 32/378/113 19/379/113
f 24/380/114 31/381/114 20/382/114
f 20/383/115 31/384/115 49/385/115
f 53/386/116 37/387/116 36/388/116
f 57/389/117 41/390/117 40/391/117
f 74/392/118 42/393/118 43/394/118
f 74/395/119 43/396/119 57/397/119
f 82/398/120 16/399/120 5/400/120 6/401/120
f 4/402/121 81/403/121 6/404/121
f 82/405/122 83/406/122 8/407/122
f 82/408/123 81/409/123 83/410/123
f 81/411/124 7/412/124 83/413/124
